<?xml version="1.0" encoding="UTF-8"?>
<svg xmlns="http://www.w3.org/2000/svg" xmlns:xlink="http://www.w3.org/1999/xlink" width="2048px" height="2048px" viewBox="0 0 2048 2048" version="1.1">
<defs>
<filter id="alpha" filterUnits="objectBoundingBox" x="0%" y="0%" width="100%" height="100%">
  <feColorMatrix type="matrix" in="SourceGraphic" values="0 0 0 0 1 0 0 0 0 1 0 0 0 0 1 0 0 0 1 0"/>
</filter>
<mask id="mask0">
  <g filter="url(#alpha)">
<rect x="0" y="0" width="2048" height="2048" style="fill:rgb(0%,0%,0%);fill-opacity:0.0980392;stroke:none;"/>
  </g>
</mask>
<clipPath id="clip1">
  <rect x="0" y="0" width="2048" height="2048"/>
</clipPath>
<g id="surface5" clip-path="url(#clip1)">
<path style=" stroke:none;fill-rule:evenodd;fill:rgb(1.568628%,2.745098%,1.960784%);fill-opacity:1;" d="M 999 565 C 1099.230469 558.777344 1175.230469 598.445312 1227 684 C 1246.757812 681.164062 1266.757812 680.496094 1287 682 C 1349.226562 698.882812 1384.226562 739.214844 1392 803 C 1459.398438 847.113281 1484.730469 908.445312 1468 987 C 1452.480469 1027.863281 1425.480469 1058.863281 1387 1080 C 1374.335938 1086.339844 1361 1090.339844 1347 1092 C 1317.183594 1092.351562 1287.519531 1093.351562 1258 1095 C 1196.664062 1201.664062 1135.335938 1308.335938 1074 1415 C 1060.75 1435.832031 1047.75 1456.832031 1035 1478 C 1025.515625 1482.457031 1017.851562 1480.125 1012 1471 C 940 1345.664062 868 1220.335938 796 1095 C 763.8125 1093.351562 731.480469 1092.351562 699 1092 C 682.140625 1088.445312 666.140625 1082.445312 651 1074 C 580.652344 1026.957031 558.984375 963.292969 586 883 C 590.984375 871.6875 596.984375 861.019531 604 851 C 615.664062 839.335938 627.335938 827.664062 639 816 C 653.285156 806.191406 668.617188 798.523438 685 793 C 690.003906 755.308594 708.003906 725.640625 739 704 C 765.703125 686.972656 795.035156 678.972656 827 680 C 836.910156 666.507812 846.578125 652.84375 856 639 C 880.917969 616.097656 908.585938 597.097656 939 582 C 958.984375 575.015625 978.984375 569.347656 999 565 Z M 1055 1031 C 1056.914062 1031.90625 1058.585938 1033.238281 1060 1035 C 1063.941406 1044.777344 1066.941406 1054.777344 1069 1065 C 1062.335938 1065 1055.664062 1065 1049 1065 C 1049.304688 1058.847656 1047.972656 1053.179688 1045 1048 C 1047.042969 1041.578125 1050.378906 1035.910156 1055 1031 Z M 1009 1207 C 1013.691406 1204.632812 1018.359375 1205.300781 1023 1209 C 1029.925781 1205.21875 1037.257812 1204.21875 1045 1206 C 1040.253906 1216.507812 1034.253906 1226.171875 1027 1235 C 1019.953125 1226.214844 1013.953125 1216.882812 1009 1207 Z M 1009 1207 "/>
</g>
<mask id="mask1">
  <g filter="url(#alpha)">
<rect x="0" y="0" width="2048" height="2048" style="fill:rgb(0%,0%,0%);fill-opacity:0.996078;stroke:none;"/>
  </g>
</mask>
<clipPath id="clip2">
  <rect x="0" y="0" width="2048" height="2048"/>
</clipPath>
<g id="surface8" clip-path="url(#clip2)">
<path style=" stroke:none;fill-rule:evenodd;fill:rgb(40.392157%,69.803923%,52.549022%);fill-opacity:1;" d="M 993 575 C 1096.253906 566.945312 1172.917969 607.609375 1223 697 C 1299.910156 678.621094 1351.574219 706.621094 1378 781 C 1378.664062 790.335938 1379.335938 799.664062 1380 809 C 1444.511719 844.027344 1471.179688 898.027344 1460 971 C 1444.777344 1029.554688 1407.777344 1065.886719 1349 1080 C 1316.386719 1082.144531 1283.722656 1083.8125 1251 1085 C 1176.675781 1214.988281 1101.34375 1344.320312 1025 1473 C 949.601562 1343.925781 874.601562 1214.59375 800 1085 C 764.414062 1083.808594 728.746094 1082.144531 693 1080 C 614.660156 1055.035156 578.324219 1001.371094 584 919 C 597.542969 858.789062 633.542969 818.789062 692 799 C 699.9375 746.40625 728.9375 711.40625 779 694 C 796.921875 691.898438 814.921875 690.234375 833 689 C 868.609375 626.046875 921.941406 588.046875 993 575 Z M 1055 1031 C 1050.378906 1035.910156 1047.042969 1041.578125 1045 1048 C 1047.972656 1053.179688 1049.304688 1058.847656 1049 1065 C 1055.664062 1065 1062.335938 1065 1069 1065 C 1066.941406 1054.777344 1063.941406 1044.777344 1060 1035 C 1058.585938 1033.238281 1056.914062 1031.90625 1055 1031 Z M 1009 1207 C 1013.953125 1216.882812 1019.953125 1226.214844 1027 1235 C 1034.253906 1226.171875 1040.253906 1216.507812 1045 1206 C 1037.257812 1204.21875 1029.925781 1205.21875 1023 1209 C 1018.359375 1205.300781 1013.691406 1204.632812 1009 1207 Z M 1009 1207 "/>
</g>
<mask id="mask2">
  <g filter="url(#alpha)">
<rect x="0" y="0" width="2048" height="2048" style="fill:rgb(0%,0%,0%);fill-opacity:0.984314;stroke:none;"/>
  </g>
</mask>
<clipPath id="clip3">
  <rect x="0" y="0" width="2048" height="2048"/>
</clipPath>
<g id="surface11" clip-path="url(#clip3)">
<path style=" stroke:none;fill-rule:evenodd;fill:rgb(22.745098%,28.235295%,34.901962%);fill-opacity:1;" d="M 1103 1117 C 1105.457031 1109.96875 1108.125 1102.96875 1111 1096 C 1110.710938 1094.457031 1110.042969 1093.121094 1109 1092 C 1066.335938 1090.664062 1023.664062 1090.664062 981 1092 C 977.917969 1095.15625 975.585938 1098.824219 974 1103 C 969.792969 1115.957031 965.460938 1128.625 961 1141 C 960.316406 1139.324219 958.984375 1138.65625 957 1139 C 959.410156 1125.367188 963.074219 1112.03125 968 1099 C 969.765625 1093.796875 972.765625 1089.460938 977 1086 C 1016.328125 1085 1055.660156 1084.664062 1095 1085 C 1095.339844 1082.355469 1094.675781 1080.023438 1093 1078 C 1067.664062 1077.335938 1042.335938 1076.664062 1017 1076 C 1013.191406 1072.371094 1009.855469 1068.371094 1007 1064 C 989.664062 1062.664062 972.335938 1062.664062 955 1064 C 953.027344 1084.167969 952.363281 1104.503906 953 1125 C 951.085938 1124.09375 949.414062 1122.761719 948 1121 C 908.929688 1053.640625 871.261719 985.640625 835 917 C 873.691406 916.335938 912.355469 917 951 919 C 975.160156 962.65625 999.828125 1005.992188 1025 1049 C 1051.089844 1005.824219 1076.425781 962.15625 1101 918 C 1139.683594 916.335938 1178.351562 916.667969 1217 919 C 1180.058594 987.046875 1142.058594 1053.046875 1103 1117 Z M 1055 1031 C 1050.378906 1035.910156 1047.042969 1041.578125 1045 1048 C 1047.972656 1053.179688 1049.304688 1058.847656 1049 1065 C 1055.664062 1065 1062.335938 1065 1069 1065 C 1066.941406 1054.777344 1063.941406 1044.777344 1060 1035 C 1058.585938 1033.238281 1056.914062 1031.90625 1055 1031 Z M 1055 1031 "/>
</g>
<mask id="mask3">
  <g filter="url(#alpha)">
<rect x="0" y="0" width="2048" height="2048" style="fill:rgb(0%,0%,0%);fill-opacity:0.223529;stroke:none;"/>
  </g>
</mask>
<clipPath id="clip4">
  <rect x="0" y="0" width="2048" height="2048"/>
</clipPath>
<g id="surface14" clip-path="url(#clip4)">
<path style=" stroke:none;fill-rule:evenodd;fill:rgb(23.137255%,28.627452%,34.509805%);fill-opacity:1;" d="M 1075 1171 C 1059.84375 1200.664062 1043.175781 1229.332031 1025 1257 C 1008.445312 1228.546875 992.445312 1199.878906 977 1171 C 983.664062 1171 990.335938 1171 997 1171 C 996.671875 1164.964844 997.003906 1158.964844 998 1153 C 999.378906 1151.285156 1001.042969 1149.953125 1003 1149 C 1004.371094 1139.246094 1009.039062 1131.578125 1017 1126 C 1035.574219 1121.28125 1045.910156 1128.28125 1048 1147 C 1051.023438 1148.515625 1053.691406 1150.515625 1056 1153 C 1056.996094 1158.964844 1057.328125 1164.964844 1057 1171 C 1063 1171 1069 1171 1075 1171 Z M 1009 1207 C 1013.953125 1216.882812 1019.953125 1226.214844 1027 1235 C 1034.253906 1226.171875 1040.253906 1216.507812 1045 1206 C 1037.257812 1204.21875 1029.925781 1205.21875 1023 1209 C 1018.359375 1205.300781 1013.691406 1204.632812 1009 1207 Z M 1009 1207 "/>
</g>
<mask id="mask4">
  <g filter="url(#alpha)">
<rect x="0" y="0" width="2048" height="2048" style="fill:rgb(0%,0%,0%);fill-opacity:0.988235;stroke:none;"/>
  </g>
</mask>
<clipPath id="clip5">
  <rect x="0" y="0" width="2048" height="2048"/>
</clipPath>
<g id="surface17" clip-path="url(#clip5)">
<path style=" stroke:none;fill-rule:evenodd;fill:rgb(97.647059%,98.039216%,98.039216%);fill-opacity:1;" d="M 1023 1131 C 1037.386719 1131.421875 1042.722656 1138.753906 1039 1153 C 1043 1153 1047 1153 1051 1153 C 1051.621094 1165.515625 1050.953125 1177.847656 1049 1190 C 1033.683594 1191 1018.347656 1191.332031 1003 1191 C 1002.667969 1178.980469 1003.003906 1166.980469 1004 1155 C 1006.886719 1151.691406 1010.554688 1150.355469 1015 1151 C 1013.496094 1142.359375 1016.164062 1135.695312 1023 1131 Z M 1023 1131 "/>
</g>
</defs>
<g id="surface1">
<use xlink:href="#surface5" mask="url(#mask0)"/>
<use xlink:href="#surface8" mask="url(#mask1)"/>
<path style=" stroke:none;fill-rule:evenodd;fill:rgb(98.039216%,98.823529%,98.431373%);fill-opacity:1;" d="M 963 651 C 985 651 1007 651 1029 651 C 1028.667969 661.023438 1029.003906 671.023438 1030 681 C 1031 682 1032 683 1033 684 C 1042.308594 684.996094 1051.640625 685.332031 1061 685 C 1061 691 1061 697 1061 703 C 1036.988281 702.664062 1012.988281 703 989 704 C 988 705 987 706 986 707 C 985 726.988281 984.667969 746.988281 985 767 C 977.636719 767.328125 970.304688 766.996094 963 766 C 961.746094 764.5 960.746094 762.832031 960 761 C 958.664062 725.664062 958.664062 690.335938 960 655 C 961.433594 653.910156 962.433594 652.578125 963 651 Z M 963 651 "/>
<path style=" stroke:none;fill-rule:evenodd;fill:rgb(95.686275%,97.254902%,96.078432%);fill-opacity:1;" d="M 1037 655 C 1044.449219 661.4375 1051.78125 668.4375 1059 676 C 1051.695312 676.996094 1044.363281 677.328125 1037 677 C 1037 669.664062 1037 662.335938 1037 655 Z M 1037 655 "/>
<path style=" stroke:none;fill-rule:evenodd;fill:rgb(97.647059%,98.431373%,98.039216%);fill-opacity:1;" d="M 993 711 C 1013 711 1033 711 1053 711 C 1052.667969 719.691406 1053.003906 728.359375 1054 737 C 1055 738 1056 739 1057 740 C 1064.972656 740.996094 1072.972656 741.332031 1081 741 C 1081.644531 765.492188 1080.976562 789.828125 1079 814 C 1051 815.335938 1023 815.335938 995 814 C 993.015625 779.820312 992.351562 745.488281 993 711 Z M 993 711 "/>
<path style=" stroke:none;fill-rule:evenodd;fill:rgb(94.117647%,97.254902%,95.294118%);fill-opacity:1;" d="M 1061 715 C 1066.957031 719.625 1072.292969 724.957031 1077 731 C 1071.828125 732.960938 1066.492188 733.625 1061 733 C 1061 727 1061 721 1061 715 Z M 1061 715 "/>
<path style=" stroke:none;fill-rule:evenodd;fill:rgb(37.64706%,71.372551%,52.156866%);fill-opacity:1;" d="M 1007 755 C 1027 755 1047 755 1067 755 C 1067 757 1067 759 1067 761 C 1047 761 1027 761 1007 761 C 1007 759 1007 757 1007 755 Z M 1007 755 "/>
<path style=" stroke:none;fill-rule:evenodd;fill:rgb(38.039216%,70.980394%,52.549022%);fill-opacity:1;" d="M 1007 771 C 1027 771 1047 771 1067 771 C 1067 773 1067 775 1067 777 C 1047 777 1027 777 1007 777 C 1007 775 1007 773 1007 771 Z M 1007 771 "/>
<path style=" stroke:none;fill-rule:evenodd;fill:rgb(45.882353%,73.333335%,58.039218%);fill-opacity:1;" d="M 1005 787 C 1025.664062 787 1046.335938 787 1067 787 C 1067 789.664062 1067 792.335938 1067 795 C 1046.335938 795 1025.664062 795 1005 795 C 1005 792.335938 1005 789.664062 1005 787 Z M 1005 787 "/>
<use xlink:href="#surface11" mask="url(#mask2)"/>
<path style=" stroke:none;fill-rule:evenodd;fill:rgb(96.078432%,96.470588%,96.470588%);fill-opacity:1;" d="M 957 1139 C 955.765625 1139.222656 954.765625 1139.886719 954 1141 C 953.007812 1135.707031 952.671875 1130.375 953 1125 C 952.363281 1104.503906 953.027344 1084.167969 955 1064 C 972.335938 1062.664062 989.664062 1062.664062 1007 1064 C 1009.855469 1068.371094 1013.191406 1072.371094 1017 1076 C 1042.335938 1076.664062 1067.664062 1077.335938 1093 1078 C 1094.675781 1080.023438 1095.339844 1082.355469 1095 1085 C 1055.660156 1084.664062 1016.328125 1085 977 1086 C 972.765625 1089.460938 969.765625 1093.796875 968 1099 C 963.074219 1112.03125 959.410156 1125.367188 957 1139 Z M 957 1139 "/>
<path style=" stroke:none;fill-rule:evenodd;fill:rgb(98.039216%,98.039216%,97.647059%);fill-opacity:1;" d="M 1103 1117 C 1096.105469 1133.488281 1089.105469 1150.152344 1082 1167 C 1080.367188 1169.644531 1078.035156 1170.976562 1075 1171 C 1069 1171 1063 1171 1057 1171 C 1057.328125 1164.964844 1056.996094 1158.964844 1056 1153 C 1053.691406 1150.515625 1051.023438 1148.515625 1048 1147 C 1045.910156 1128.28125 1035.574219 1121.28125 1017 1126 C 1009.039062 1131.578125 1004.371094 1139.246094 1003 1149 C 1001.042969 1149.953125 999.378906 1151.285156 998 1153 C 997.003906 1158.964844 996.671875 1164.964844 997 1171 C 990.335938 1171 983.664062 1171 977 1171 C 969.871094 1169.152344 962.539062 1168.488281 955 1169 C 956.171875 1159.488281 958.171875 1150.15625 961 1141 C 965.460938 1128.625 969.792969 1115.957031 974 1103 C 975.585938 1098.824219 977.917969 1095.15625 981 1092 C 1023.664062 1090.664062 1066.335938 1090.664062 1109 1092 C 1110.042969 1093.121094 1110.710938 1094.457031 1111 1096 C 1108.125 1102.96875 1105.457031 1109.96875 1103 1117 Z M 1103 1117 "/>
<use xlink:href="#surface14" mask="url(#mask3)"/>
<use xlink:href="#surface17" mask="url(#mask4)"/>
<path style=" stroke:none;fill-rule:evenodd;fill:rgb(24.313726%,30.980393%,37.254903%);fill-opacity:1;" d="M 1023 1161 C 1026.289062 1160.570312 1029.289062 1161.238281 1032 1163 C 1031.695312 1168.894531 1031.363281 1174.894531 1031 1181 C 1028.335938 1181 1025.664062 1181 1023 1181 C 1022.03125 1174.097656 1022.03125 1167.433594 1023 1161 Z M 1023 1161 "/>
</g>
</svg>
